<?xml version="1.0" encoding="utf-8"?>
<!-- Generator: Adobe Illustrator 24.0.0, SVG Export Plug-In . SVG Version: 6.00 Build 0)  -->
<svg version="1.1" id="Layer_1" xmlns:serif="http://www.serif.com/"
	 xmlns="http://www.w3.org/2000/svg" xmlns:xlink="http://www.w3.org/1999/xlink" x="0px" y="0px" viewBox="0 0 612 792"
	 style="enable-background:new 0 0 612 792;" xml:space="preserve">
<style type="text/css">
	.st0{fill-rule:evenodd;clip-rule:evenodd;fill:#27387E;}
	.st1{enable-background:new    ;}
	.st2{fill:#FFFFFF;}
	.st3{fill-rule:evenodd;clip-rule:evenodd;fill:#FFD900;}
	.st4{clip-path:url(#SVGID_2_);}
	.st5{clip-path:url(#SVGID_4_);}
	.st6{clip-path:url(#SVGID_6_);}
	.st7{clip-path:url(#SVGID_8_);}
	.st8{clip-path:url(#SVGID_10_);}
	.st9{clip-path:url(#SVGID_12_);}
	.st10{clip-path:url(#SVGID_14_);}
</style>
<g transform="matrix(0.990787,0,0,0.873836,6.12929,15.9671)">
	<path class="st0" d="M611.2,397.1c0-27.5-19.7-49.7-43.9-49.7H37.4c-24.2,0-43.9,22.3-43.9,49.7v75.7c0,27.5,19.7,49.7,43.9,49.7
		h529.9c24.2,0,43.9-22.3,43.9-49.7V397.1z"/>
</g>
<g transform="matrix(1.27995,0,0,0.85018,-83.8935,-79.8535)">
	<g class="st1">
		<path class="st2" d="M199.1,523.3v6.4H194v-6.4l-10.4-10.5v37.7h-5.1v-43.8c0-1.1,0.5-1.9,1.6-2.4c0.2-0.1,0.5-0.2,0.9-0.2
			c0.7,0,1.3,0.3,1.8,0.8l13.6,13.6l13.8-13.8c0.5-0.5,1.1-0.8,1.8-0.8c0.4,0,0.7,0.1,0.9,0.2c1.1,0.5,1.6,1.2,1.6,2.4v44.1h-5.1
			v-38L199.1,523.3z"/>
		<path class="st2" d="M229.1,535v15.5h-5v-28.6c0-0.6,0.3-1.2,0.8-1.7l15.3-15.3c0.5-0.5,1-0.8,1.7-0.8c0.8,0,1.4,0.3,1.9,0.8
			l15.5,15.4c0.5,0.5,0.7,1,0.7,1.8v28.5h-5.1L255,535H229.1z M229.2,529.8h25.7V523l-13-12.9L229.2,523V529.8z"/>
		<path class="st2" d="M300.3,512.5l-3.4-3.4h-18.6l-3.6,3.6v2.7l29.5,20.2c0.7,0.5,1.1,1.2,1.1,2.1v5c0,0.6-0.2,1.1-0.7,1.7
			l-4.8,5.3c-0.6,0.6-1.2,0.8-1.9,0.8l-20.8,0.1c-0.7,0-1.3-0.3-1.8-0.8l-5.2-5.2c-0.5-0.5-0.8-1.1-0.8-1.8v-2.6h5.1v1.6l3.6,3.6
			l18.7-0.1l3.4-3.7v-2.6l-29.5-20.2c-0.7-0.5-1.1-1.2-1.1-2.1v-5.1c0-0.7,0.3-1.3,0.8-1.8l5.2-5.2c0.5-0.5,1.1-0.8,1.8-0.8h20.7
			c0.7,0,1.3,0.3,1.8,0.8l4.9,4.9c0.5,0.5,0.8,1.1,0.8,1.8v2.7h-5.1V512.5z"/>
		<path class="st2" d="M314.7,504h36.1v5.2h-15.5v41.3h-5.2v-41.3h-15.4V504z"/>
		<path class="st2" d="M360.4,504h35.8v5.2h-30.7v15.5h20.3v5.2h-20.3v15.6h30.7v5.1h-35.8V504z"/>
		<path class="st2" d="M424.5,529.7l16.3,16.4c0.5,0.5,0.8,1.1,0.8,1.8v2.5h-5.1V549l-19.2-19.2h-6.6l0.1,20.8h-5.2v-46.4h28.4
			c0.7,0,1.3,0.3,1.8,0.8l5.2,5.1c0.5,0.5,0.8,1.1,0.8,1.8v10.4c0,0.7-0.3,1.3-0.8,1.8l-5,5.1c-0.5,0.5-1.1,0.8-1.8,0.8H424.5z
			 M410.6,524.7H433l3.6-3.6v-8.3l-3.6-3.6h-22.3V524.7z"/>
	</g>
	<g class="st1">
		<path class="st2" d="M447.9,504h15.4v5.2h-5.2v36.3h5.2v5.2l-15.5-0.1v-5.2l5.2,0.1v-36.3h-5.2L447.9,504z"/>
		<path class="st2" d="M482.9,550.5V504h5.2l25.8,25.9V504h5.1v46.4h-5.1v-12.7L488,511.6v39L482.9,550.5z"/>
	</g>
	<g class="st1">
		<path class="st2" d="M354.1,566.3h36.1v5.2h-15.5v41.3h-5.2v-41.3h-15.4V566.3z"/>
		<path class="st2" d="M399.7,566.3h35.8v5.2h-30.7V587h20.3v5.2h-20.3v15.6h30.7v5.1h-35.8V566.3z"/>
		<path class="st2" d="M481,572.2l-3.6,3.6l-4.5-4.3h-8.8l-13.9,13.9v8.6l14,13.8l8.6,0.1l4.4-4.7l3.7,3.6l-5.2,5.4
			c-0.5,0.5-1.1,0.8-1.9,0.8h-10.8c-0.6,0-1.2-0.3-1.8-0.8l-15.5-15.3c-0.5-0.5-0.8-1.1-0.8-1.8v-10.7c0-0.7,0.2-1.3,0.7-1.8
			l15.5-15.4c0.5-0.5,1.1-0.8,1.8-0.8H474c0.7,0,1.3,0.2,1.8,0.7L481,572.2z"/>
		<path class="st2" d="M490.6,566.3h5.2V587h25.6v-20.7h5.1v46.5h-5.1v-20.7h-25.6v20.7h-5.2V566.3z"/>
	</g>
</g>
<g transform="matrix(1,0,0,1,0,-6)">
	<g>
		<g transform="matrix(0.854465,0,0,0.835561,197.638,2.89007)">
			<rect x="-79.3" y="399.4" class="st3" width="210.5" height="4.4"/>
		</g>
		<g transform="matrix(-0.427991,0,0,0.799816,302.446,4.00172)">
			<path class="st3" d="M639.1,465.7l-236-49.8v4.4l236,49.8V465.7z"/>
		</g>
		<g transform="matrix(0.79572,0,0,0.761679,16.0174,23.8857)">
			<ellipse class="st3" cx="11.7" cy="466.3" rx="4.8" ry="4.6"/>
			<g>
				<defs>
					<ellipse id="SVGID_1_" cx="11.7" cy="466.3" rx="4.8" ry="4.6"/>
				</defs>
				<clipPath id="SVGID_2_">
					<use xlink:href="#SVGID_1_"  style="overflow:visible;"/>
				</clipPath>
				<g class="st4">
					<g transform="matrix(1.25672,0,0,1.25672,-21.1362,-31.4422)">
						<ellipse class="st0" cx="26.2" cy="396.1" rx="2.4" ry="2.3"/>
					</g>
				</g>
			</g>
		</g>
		<g transform="matrix(0.79572,0,0,0.79572,608.685,-63.6994)">
			<circle class="st3" cx="-371.3" cy="505.5" r="6"/>
			<g>
				<defs>
					<circle id="SVGID_3_" cx="-371.3" cy="505.5" r="4.8"/>
				</defs>
				<clipPath id="SVGID_4_">
					<use xlink:href="#SVGID_3_"  style="overflow:visible;"/>
				</clipPath>
				<g class="st5">
					<g transform="matrix(1.25672,0,0,1.25672,-21.1362,-31.4422)">
						<circle class="st0" cx="-278.7" cy="427.3" r="2.4"/>
					</g>
				</g>
			</g>
		</g>
	</g>
	<g transform="matrix(1,0,0,0.957221,0,1.23529)">
		<g transform="matrix(1.00827,0,0,0.835561,185.526,197.491)">
			<rect x="-54.9" y="296.1" class="st3" width="210.5" height="4.4"/>
		</g>
		<g transform="matrix(-0.427991,0,0,0.835561,302.825,192.315)">
			<path class="st3" d="M579.4,342.6l-175.9-40.3v4.4L579.4,347V342.6z"/>
		</g>
		<g transform="matrix(0.79572,0,0,0.79572,72.8004,200.979)">
			<ellipse class="st3" cx="-25" cy="351.7" rx="4.8" ry="4.6"/>
			<g>
				<defs>
					<ellipse id="SVGID_5_" cx="-25" cy="351.7" rx="4.8" ry="4.6"/>
				</defs>
				<clipPath id="SVGID_6_">
					<use xlink:href="#SVGID_5_"  style="overflow:visible;"/>
				</clipPath>
				<g class="st6">
					<g transform="matrix(1.25672,0,0,1.25672,-21.1362,-31.4422)">
						<ellipse class="st0" cx="-3.1" cy="304.9" rx="2.4" ry="2.3"/>
					</g>
				</g>
			</g>
		</g>
		<g transform="matrix(0.79572,0,0,0.79572,676.329,130.868)">
			<ellipse class="st3" cx="-415" cy="397.1" rx="4.8" ry="4.6"/>
			<g>
				<defs>
					<ellipse id="SVGID_7_" cx="-415" cy="397.1" rx="4.8" ry="4.6"/>
				</defs>
				<clipPath id="SVGID_8_">
					<use xlink:href="#SVGID_7_"  style="overflow:visible;"/>
				</clipPath>
				<g class="st7">
					<g transform="matrix(1.25672,0,0,1.25672,-21.1362,-31.4422)">
						<ellipse class="st0" cx="-313.4" cy="341" rx="2.4" ry="2.3"/>
					</g>
				</g>
			</g>
		</g>
	</g>
	<g transform="matrix(1,0,0,1,3,-3)">
		<g transform="matrix(-2.09375,0,0,0.835561,1351.16,263.992)">
			<rect x="372.3" y="244.9" class="st3" width="210.5" height="-4.4"/>
		</g>
		<g transform="matrix(-0.79572,0,0,0.79572,300.788,197.403)">
			<circle class="st3" cx="218.4" cy="338.7" r="6"/>
			<g>
				<defs>
					<circle id="SVGID_9_" cx="218.4" cy="338.7" r="4.8"/>
				</defs>
				<clipPath id="SVGID_10_">
					<use xlink:href="#SVGID_9_"  style="overflow:visible;"/>
				</clipPath>
				<g class="st8">
					<g transform="matrix(1.25672,0,0,1.25672,-21.1362,-31.4422)">
						<circle class="st0" cx="190.6" cy="294.5" r="2.4"/>
					</g>
				</g>
			</g>
		</g>
	</g>
	<g transform="matrix(1,0,0,0.957221,0,3.14973)">
		<g transform="matrix(-0.427991,0,0,0.835561,302.439,131.422)">
			<path class="st3" d="M603.7,381.2l-200.6-45.7v4.4l200.6,45.7V381.2z"/>
		</g>
		<g transform="matrix(0.79572,0,0,0.79572,53.6241,142.427)">
			<ellipse class="st3" cx="-12.6" cy="388.3" rx="4.8" ry="4.6"/>
			<g>
				<defs>
					<ellipse id="SVGID_11_" cx="-12.6" cy="388.3" rx="4.8" ry="4.6"/>
				</defs>
				<clipPath id="SVGID_12_">
					<use xlink:href="#SVGID_11_"  style="overflow:visible;"/>
				</clipPath>
				<g class="st9">
					<g transform="matrix(1.25672,0,0,1.25672,-21.1362,-31.4422)">
						<ellipse class="st0" cx="6.8" cy="334" rx="2.4" ry="2.3"/>
					</g>
				</g>
			</g>
		</g>
	</g>
	<g transform="matrix(1,0,0,0.957221,0,1.23529)">
		<g transform="matrix(-0.427991,0,0,0.835561,302.422,65.9133)">
			<path class="st3" d="M621,427.3l-217.9-50.2v4.4L621,431.7V427.3z"/>
		</g>
		<g transform="matrix(0.79572,0,0,0.79572,35.1003,85.4915)">
			<ellipse class="st3" cx="-0.6" cy="426.4" rx="4.8" ry="4.6"/>
			<g>
				<defs>
					<ellipse id="SVGID_13_" cx="-0.6" cy="426.4" rx="4.8" ry="4.6"/>
				</defs>
				<clipPath id="SVGID_14_">
					<use xlink:href="#SVGID_13_"  style="overflow:visible;"/>
				</clipPath>
				<g class="st10">
					<g transform="matrix(1.25672,0,0,1.25672,-21.1362,-31.4422)">
						<ellipse class="st0" cx="16.3" cy="364.3" rx="2.4" ry="2.3"/>
					</g>
				</g>
			</g>
		</g>
	</g>
</g>
<path class="st3" d="M39.8,337.2v-3.6V337.2z"/>
</svg>
